<svg width="7" height="14" viewBox="0 0 7 14" fill="none" xmlns="http://www.w3.org/2000/svg">
<path d="M6.09375 1.3125C6.34375 1.3125 6.55208 1.40625 6.71875 1.59375C6.90625 1.76042 7 1.96875 7 2.21875V12.4375C7 12.6875 6.90625 12.8958 6.71875 13.0625C6.55208 13.2292 6.34375 13.3125 6.09375 13.3125H1.21875C0.96875 13.3125 0.75 13.2292 0.5625 13.0625C0.395833 12.8958 0.3125 12.6875 0.3125 12.4375V2.21875C0.3125 1.96875 0.395833 1.76042 0.5625 1.59375C0.75 1.40625 0.96875 1.3125 1.21875 1.3125H2.3125V0H5V1.3125H6.09375Z" fill="#333333"/>
</svg>
