<svg width="60" height="40" viewBox="0 0 60 40" fill="none" xmlns="http://www.w3.org/2000/svg">
<g opacity="0.3">
<path d="M7.23877 35L5.31877 32.3C5.10277 32.324 4.87877 32.336 4.64677 32.336H2.39077V35H1.50277V26.6H4.64677C5.71877 26.6 6.55877 26.856 7.16677 27.368C7.77477 27.88 8.07877 28.584 8.07877 29.48C8.07877 30.136 7.91077 30.692 7.57477 31.148C7.24677 31.596 6.77477 31.92 6.15877 32.12L8.21077 35H7.23877ZM4.62277 31.58C5.45477 31.58 6.09077 31.396 6.53077 31.028C6.97077 30.66 7.19077 30.144 7.19077 29.48C7.19077 28.8 6.97077 28.28 6.53077 27.92C6.09077 27.552 5.45477 27.368 4.62277 27.368H2.39077V31.58H4.62277ZM15.4906 32.108H10.2106C10.2586 32.764 10.5106 33.296 10.9666 33.704C11.4226 34.104 11.9986 34.304 12.6946 34.304C13.0866 34.304 13.4466 34.236 13.7746 34.1C14.1026 33.956 14.3866 33.748 14.6266 33.476L15.1066 34.028C14.8266 34.364 14.4746 34.62 14.0506 34.796C13.6346 34.972 13.1746 35.06 12.6706 35.06C12.0226 35.06 11.4466 34.924 10.9426 34.652C10.4466 34.372 10.0586 33.988 9.77864 33.5C9.49864 33.012 9.35864 32.46 9.35864 31.844C9.35864 31.228 9.49064 30.676 9.75464 30.188C10.0266 29.7 10.3946 29.32 10.8586 29.048C11.3306 28.776 11.8586 28.64 12.4426 28.64C13.0266 28.64 13.5506 28.776 14.0146 29.048C14.4786 29.32 14.8426 29.7 15.1066 30.188C15.3706 30.668 15.5026 31.22 15.5026 31.844L15.4906 32.108ZM12.4426 29.372C11.8346 29.372 11.3226 29.568 10.9066 29.96C10.4986 30.344 10.2666 30.848 10.2106 31.472H14.6866C14.6306 30.848 14.3946 30.344 13.9786 29.96C13.5706 29.568 13.0586 29.372 12.4426 29.372ZM17.2368 26.096H18.0888V35H17.2368V26.096ZM22.6675 28.64C23.4915 28.64 24.1235 28.848 24.5635 29.264C25.0035 29.672 25.2235 30.28 25.2235 31.088V35H24.4075V34.016C24.2155 34.344 23.9315 34.6 23.5555 34.784C23.1875 34.968 22.7475 35.06 22.2355 35.06C21.5315 35.06 20.9715 34.892 20.5555 34.556C20.1395 34.22 19.9315 33.776 19.9315 33.224C19.9315 32.688 20.1235 32.256 20.5075 31.928C20.8995 31.6 21.5195 31.436 22.3675 31.436H24.3715V31.052C24.3715 30.508 24.2195 30.096 23.9155 29.816C23.6115 29.528 23.1675 29.384 22.5835 29.384C22.1835 29.384 21.7995 29.452 21.4315 29.588C21.0635 29.716 20.7475 29.896 20.4835 30.128L20.0995 29.492C20.4195 29.22 20.8035 29.012 21.2515 28.868C21.6995 28.716 22.1715 28.64 22.6675 28.64ZM22.3675 34.388C22.8475 34.388 23.2595 34.28 23.6035 34.064C23.9475 33.84 24.2035 33.52 24.3715 33.104V32.072H22.3915C21.3115 32.072 20.7715 32.448 20.7715 33.2C20.7715 33.568 20.9115 33.86 21.1915 34.076C21.4715 34.284 21.8635 34.388 22.3675 34.388ZM30.8616 34.616C30.7016 34.76 30.5016 34.872 30.2616 34.952C30.0296 35.024 29.7856 35.06 29.5296 35.06C28.9376 35.06 28.4816 34.9 28.1616 34.58C27.8416 34.26 27.6816 33.808 27.6816 33.224V29.408H26.5536V28.688H27.6816V27.308H28.5336V28.688H30.4536V29.408H28.5336V33.176C28.5336 33.552 28.6256 33.84 28.8096 34.04C29.0016 34.232 29.2736 34.328 29.6256 34.328C29.8016 34.328 29.9696 34.3 30.1296 34.244C30.2976 34.188 30.4416 34.108 30.5616 34.004L30.8616 34.616ZM34.77 35.06C34.162 35.06 33.614 34.924 33.126 34.652C32.638 34.372 32.254 33.988 31.974 33.5C31.694 33.012 31.554 32.46 31.554 31.844C31.554 31.228 31.694 30.676 31.974 30.188C32.254 29.7 32.638 29.32 33.126 29.048C33.614 28.776 34.162 28.64 34.77 28.64C35.378 28.64 35.926 28.776 36.414 29.048C36.902 29.32 37.282 29.7 37.554 30.188C37.834 30.676 37.974 31.228 37.974 31.844C37.974 32.46 37.834 33.012 37.554 33.5C37.282 33.988 36.902 34.372 36.414 34.652C35.926 34.924 35.378 35.06 34.77 35.06ZM34.77 34.304C35.218 34.304 35.618 34.204 35.97 34.004C36.33 33.796 36.61 33.504 36.81 33.128C37.01 32.752 37.11 32.324 37.11 31.844C37.11 31.364 37.01 30.936 36.81 30.56C36.61 30.184 36.33 29.896 35.97 29.696C35.618 29.488 35.218 29.384 34.77 29.384C34.322 29.384 33.918 29.488 33.558 29.696C33.206 29.896 32.926 30.184 32.718 30.56C32.518 30.936 32.418 31.364 32.418 31.844C32.418 32.324 32.518 32.752 32.718 33.128C32.926 33.504 33.206 33.796 33.558 34.004C33.918 34.204 34.322 34.304 34.77 34.304ZM35.622 26.216H36.762L34.818 27.704H33.978L35.622 26.216ZM40.5294 29.924C40.7294 29.5 41.0254 29.18 41.4174 28.964C41.8174 28.748 42.3094 28.64 42.8934 28.64V29.468L42.6894 29.456C42.0254 29.456 41.5054 29.66 41.1294 30.068C40.7534 30.476 40.5654 31.048 40.5654 31.784V35H39.7134V28.688H40.5294V29.924ZM44.436 28.688H45.288V35H44.436V28.688ZM44.868 27.308C44.692 27.308 44.544 27.248 44.424 27.128C44.304 27.008 44.244 26.864 44.244 26.696C44.244 26.536 44.304 26.396 44.424 26.276C44.544 26.156 44.692 26.096 44.868 26.096C45.044 26.096 45.192 26.156 45.312 26.276C45.432 26.388 45.492 26.524 45.492 26.684C45.492 26.86 45.432 27.008 45.312 27.128C45.192 27.248 45.044 27.308 44.868 27.308ZM50.2387 35.06C49.6307 35.06 49.0827 34.924 48.5947 34.652C48.1067 34.372 47.7227 33.988 47.4427 33.5C47.1627 33.012 47.0227 32.46 47.0227 31.844C47.0227 31.228 47.1627 30.676 47.4427 30.188C47.7227 29.7 48.1067 29.32 48.5947 29.048C49.0827 28.776 49.6307 28.64 50.2387 28.64C50.8467 28.64 51.3947 28.776 51.8827 29.048C52.3707 29.32 52.7507 29.7 53.0227 30.188C53.3027 30.676 53.4427 31.228 53.4427 31.844C53.4427 32.46 53.3027 33.012 53.0227 33.5C52.7507 33.988 52.3707 34.372 51.8827 34.652C51.3947 34.924 50.8467 35.06 50.2387 35.06ZM50.2387 34.304C50.6867 34.304 51.0867 34.204 51.4387 34.004C51.7987 33.796 52.0787 33.504 52.2787 33.128C52.4787 32.752 52.5787 32.324 52.5787 31.844C52.5787 31.364 52.4787 30.936 52.2787 30.56C52.0787 30.184 51.7987 29.896 51.4387 29.696C51.0867 29.488 50.6867 29.384 50.2387 29.384C49.7907 29.384 49.3867 29.488 49.0267 29.696C48.6747 29.896 48.3947 30.184 48.1867 30.56C47.9867 30.936 47.8867 31.364 47.8867 31.844C47.8867 32.324 47.9867 32.752 48.1867 33.128C48.3947 33.504 48.6747 33.796 49.0267 34.004C49.3867 34.204 49.7907 34.304 50.2387 34.304ZM56.8741 35.06C56.3621 35.06 55.8701 34.988 55.3981 34.844C54.9341 34.692 54.5701 34.504 54.3061 34.28L54.6901 33.608C54.9541 33.816 55.2861 33.988 55.6861 34.124C56.0861 34.252 56.5021 34.316 56.9341 34.316C57.5101 34.316 57.9341 34.228 58.2061 34.052C58.4861 33.868 58.6261 33.612 58.6261 33.284C58.6261 33.052 58.5501 32.872 58.3981 32.744C58.2461 32.608 58.0541 32.508 57.8221 32.444C57.5901 32.372 57.2821 32.304 56.8981 32.24C56.3861 32.144 55.9741 32.048 55.6621 31.952C55.3501 31.848 55.0821 31.676 54.8581 31.436C54.6421 31.196 54.5341 30.864 54.5341 30.44C54.5341 29.912 54.7541 29.48 55.1941 29.144C55.6341 28.808 56.2461 28.64 57.0301 28.64C57.4381 28.64 57.8461 28.696 58.2541 28.808C58.6621 28.912 58.9981 29.052 59.2621 29.228L58.8901 29.912C58.3701 29.552 57.7501 29.372 57.0301 29.372C56.4861 29.372 56.0741 29.468 55.7941 29.66C55.5221 29.852 55.3861 30.104 55.3861 30.416C55.3861 30.656 55.4621 30.848 55.6141 30.992C55.7741 31.136 55.9701 31.244 56.2021 31.316C56.4341 31.38 56.7541 31.448 57.1621 31.52C57.6661 31.616 58.0701 31.712 58.3741 31.808C58.6781 31.904 58.9381 32.068 59.1541 32.3C59.3701 32.532 59.4781 32.852 59.4781 33.26C59.4781 33.812 59.2461 34.252 58.7821 34.58C58.3261 34.9 57.6901 35.06 56.8741 35.06Z" fill="#464646"/>
<path fill-rule="evenodd" clip-rule="evenodd" d="M35 6C35.5523 6 36 6.44772 36 7V17C36 17.5523 35.5523 18 35 18C34.4477 18 34 17.5523 34 17V7C34 6.44772 34.4477 6 35 6Z" fill="#464646"/>
<path fill-rule="evenodd" clip-rule="evenodd" d="M29 0C29.5523 0 30 0.447715 30 1V17C30 17.5523 29.5523 18 29 18C28.4477 18 28 17.5523 28 17V1C28 0.447715 28.4477 0 29 0Z" fill="#464646"/>
<path fill-rule="evenodd" clip-rule="evenodd" d="M23 10C23.5523 10 24 10.4477 24 11V17C24 17.5523 23.5523 18 23 18C22.4477 18 22 17.5523 22 17V11C22 10.4477 22.4477 10 23 10Z" fill="#464646"/>
</g>
</svg>
