<svg width="35" height="38" viewBox="0 0 35 38" fill="none" xmlns="http://www.w3.org/2000/svg">
<g opacity="0.3">
<path d="M10.1428 24.6V33H9.29078V26.28L5.99078 31.932H5.57078L2.27078 26.316V33H1.41878V24.6H2.15078L5.79878 30.828L9.41078 24.6H10.1428ZM18.1957 30.108H12.9157C12.9637 30.764 13.2157 31.296 13.6717 31.704C14.1277 32.104 14.7037 32.304 15.3997 32.304C15.7917 32.304 16.1517 32.236 16.4797 32.1C16.8077 31.956 17.0917 31.748 17.3317 31.476L17.8117 32.028C17.5317 32.364 17.1797 32.62 16.7557 32.796C16.3397 32.972 15.8797 33.06 15.3757 33.06C14.7277 33.06 14.1517 32.924 13.6477 32.652C13.1517 32.372 12.7637 31.988 12.4837 31.5C12.2037 31.012 12.0637 30.46 12.0637 29.844C12.0637 29.228 12.1957 28.676 12.4597 28.188C12.7317 27.7 13.0997 27.32 13.5637 27.048C14.0357 26.776 14.5637 26.64 15.1477 26.64C15.7317 26.64 16.2557 26.776 16.7197 27.048C17.1837 27.32 17.5477 27.7 17.8117 28.188C18.0757 28.668 18.2077 29.22 18.2077 29.844L18.1957 30.108ZM15.1477 27.372C14.5397 27.372 14.0277 27.568 13.6117 27.96C13.2037 28.344 12.9717 28.848 12.9157 29.472H17.3917C17.3357 28.848 17.0997 28.344 16.6837 27.96C16.2757 27.568 15.7637 27.372 15.1477 27.372ZM23.1579 26.64C23.9499 26.64 24.5779 26.872 25.0419 27.336C25.5139 27.792 25.7499 28.46 25.7499 29.34V33H24.8979V29.424C24.8979 28.768 24.7339 28.268 24.4059 27.924C24.0779 27.58 23.6099 27.408 23.0019 27.408C22.3219 27.408 21.7819 27.612 21.3819 28.02C20.9899 28.42 20.7939 28.976 20.7939 29.688V33H19.9419V26.688H20.7579V27.852C20.9899 27.468 21.3099 27.172 21.7179 26.964C22.1339 26.748 22.6139 26.64 23.1579 26.64ZM33.751 26.688V33H32.935V31.848C32.711 32.232 32.403 32.532 32.011 32.748C31.619 32.956 31.171 33.06 30.667 33.06C29.843 33.06 29.191 32.832 28.711 32.376C28.239 31.912 28.003 31.236 28.003 30.348V26.688H28.855V30.264C28.855 30.928 29.019 31.432 29.347 31.776C29.675 32.12 30.143 32.292 30.751 32.292C31.415 32.292 31.939 32.092 32.323 31.692C32.707 31.284 32.899 30.72 32.899 30V26.688H33.751Z" fill="#464646"/>
<path fill-rule="evenodd" clip-rule="evenodd" d="M7 7C7 6.44772 7.44772 6 8 6H26C26.5523 6 27 6.44772 27 7C27 7.55228 26.5523 8 26 8H8C7.44772 8 7 7.55228 7 7Z" fill="#464646"/>
<path fill-rule="evenodd" clip-rule="evenodd" d="M7 1C7 0.447715 7.44772 0 8 0H26C26.5523 0 27 0.447715 27 1C27 1.55228 26.5523 2 26 2H8C7.44772 2 7 1.55228 7 1Z" fill="#464646"/>
<path fill-rule="evenodd" clip-rule="evenodd" d="M7 13C7 12.4477 7.44772 12 8 12H26C26.5523 12 27 12.4477 27 13C27 13.5523 26.5523 14 26 14H8C7.44772 14 7 13.5523 7 13Z" fill="#464646"/>
</g>
</svg>
