<svg width="49" height="41" viewBox="0 0 49 41" fill="none" xmlns="http://www.w3.org/2000/svg">
<g opacity="0.3">
<path d="M5.41639 36.072C4.58439 36.072 3.83239 35.888 3.16039 35.52C2.49639 35.152 1.97239 34.644 1.58839 33.996C1.21239 33.34 1.02439 32.608 1.02439 31.8C1.02439 30.992 1.21239 30.264 1.58839 29.616C1.97239 28.96 2.50039 28.448 3.17239 28.08C3.84439 27.712 4.59639 27.528 5.42839 27.528C6.05239 27.528 6.62839 27.632 7.15639 27.84C7.68439 28.048 8.13239 28.352 8.50039 28.752L7.93639 29.316C7.28039 28.652 6.45239 28.32 5.45239 28.32C4.78839 28.32 4.18439 28.472 3.64039 28.776C3.09639 29.08 2.66839 29.496 2.35639 30.024C2.05239 30.552 1.90039 31.144 1.90039 31.8C1.90039 32.456 2.05239 33.048 2.35639 33.576C2.66839 34.104 3.09639 34.52 3.64039 34.824C4.18439 35.128 4.78839 35.28 5.45239 35.28C6.46039 35.28 7.28839 34.944 7.93639 34.272L8.50039 34.836C8.13239 35.236 7.68039 35.544 7.14439 35.76C6.61639 35.968 6.04039 36.072 5.41639 36.072ZM10.2134 27.096H11.0654V36H10.2134V27.096ZM13.436 29.688H14.288V36H13.436V29.688ZM13.868 28.308C13.692 28.308 13.544 28.248 13.424 28.128C13.304 28.008 13.244 27.864 13.244 27.696C13.244 27.536 13.304 27.396 13.424 27.276C13.544 27.156 13.692 27.096 13.868 27.096C14.044 27.096 14.192 27.156 14.312 27.276C14.432 27.388 14.492 27.524 14.492 27.684C14.492 27.86 14.432 28.008 14.312 28.128C14.192 28.248 14.044 28.308 13.868 28.308ZM22.1547 33.108H16.8747C16.9227 33.764 17.1747 34.296 17.6307 34.704C18.0867 35.104 18.6627 35.304 19.3587 35.304C19.7507 35.304 20.1107 35.236 20.4387 35.1C20.7667 34.956 21.0507 34.748 21.2907 34.476L21.7707 35.028C21.4907 35.364 21.1387 35.62 20.7147 35.796C20.2987 35.972 19.8387 36.06 19.3347 36.06C18.6867 36.06 18.1107 35.924 17.6067 35.652C17.1107 35.372 16.7227 34.988 16.4427 34.5C16.1627 34.012 16.0227 33.46 16.0227 32.844C16.0227 32.228 16.1547 31.676 16.4187 31.188C16.6907 30.7 17.0587 30.32 17.5227 30.048C17.9947 29.776 18.5227 29.64 19.1067 29.64C19.6907 29.64 20.2147 29.776 20.6787 30.048C21.1427 30.32 21.5067 30.7 21.7707 31.188C22.0347 31.668 22.1667 32.22 22.1667 32.844L22.1547 33.108ZM19.1067 30.372C18.4987 30.372 17.9867 30.568 17.5707 30.96C17.1627 31.344 16.9307 31.848 16.8747 32.472H21.3507C21.2947 31.848 21.0587 31.344 20.6427 30.96C20.2347 30.568 19.7227 30.372 19.1067 30.372ZM27.1169 29.64C27.9089 29.64 28.5369 29.872 29.0009 30.336C29.4729 30.792 29.7089 31.46 29.7089 32.34V36H28.8569V32.424C28.8569 31.768 28.6929 31.268 28.3649 30.924C28.0369 30.58 27.5689 30.408 26.9609 30.408C26.2809 30.408 25.7409 30.612 25.3409 31.02C24.9489 31.42 24.7529 31.976 24.7529 32.688V36H23.9009V29.688H24.7169V30.852C24.9489 30.468 25.2689 30.172 25.6769 29.964C26.0929 29.748 26.5729 29.64 27.1169 29.64ZM35.346 35.616C35.186 35.76 34.986 35.872 34.746 35.952C34.514 36.024 34.27 36.06 34.014 36.06C33.422 36.06 32.966 35.9 32.646 35.58C32.326 35.26 32.166 34.808 32.166 34.224V30.408H31.038V29.688H32.166V28.308H33.018V29.688H34.938V30.408H33.018V34.176C33.018 34.552 33.11 34.84 33.294 35.04C33.486 35.232 33.758 35.328 34.11 35.328C34.286 35.328 34.454 35.3 34.614 35.244C34.782 35.188 34.926 35.108 35.046 35.004L35.346 35.616ZM42.1703 33.108H36.8903C36.9383 33.764 37.1903 34.296 37.6463 34.704C38.1023 35.104 38.6783 35.304 39.3743 35.304C39.7663 35.304 40.1263 35.236 40.4543 35.1C40.7823 34.956 41.0663 34.748 41.3063 34.476L41.7863 35.028C41.5063 35.364 41.1543 35.62 40.7303 35.796C40.3143 35.972 39.8543 36.06 39.3503 36.06C38.7023 36.06 38.1263 35.924 37.6223 35.652C37.1263 35.372 36.7383 34.988 36.4583 34.5C36.1783 34.012 36.0383 33.46 36.0383 32.844C36.0383 32.228 36.1703 31.676 36.4343 31.188C36.7063 30.7 37.0743 30.32 37.5383 30.048C38.0103 29.776 38.5383 29.64 39.1223 29.64C39.7063 29.64 40.2303 29.776 40.6943 30.048C41.1583 30.32 41.5223 30.7 41.7863 31.188C42.0503 31.668 42.1823 32.22 42.1823 32.844L42.1703 33.108ZM39.1223 30.372C38.5143 30.372 38.0023 30.568 37.5863 30.96C37.1783 31.344 36.9463 31.848 36.8903 32.472H41.3663C41.3103 31.848 41.0743 31.344 40.6583 30.96C40.2503 30.568 39.7383 30.372 39.1223 30.372ZM45.6085 36.06C45.0965 36.06 44.6045 35.988 44.1325 35.844C43.6685 35.692 43.3045 35.504 43.0405 35.28L43.4245 34.608C43.6885 34.816 44.0205 34.988 44.4205 35.124C44.8205 35.252 45.2365 35.316 45.6685 35.316C46.2445 35.316 46.6685 35.228 46.9405 35.052C47.2205 34.868 47.3605 34.612 47.3605 34.284C47.3605 34.052 47.2845 33.872 47.1325 33.744C46.9805 33.608 46.7885 33.508 46.5565 33.444C46.3245 33.372 46.0165 33.304 45.6325 33.24C45.1205 33.144 44.7085 33.048 44.3965 32.952C44.0845 32.848 43.8165 32.676 43.5925 32.436C43.3765 32.196 43.2685 31.864 43.2685 31.44C43.2685 30.912 43.4885 30.48 43.9285 30.144C44.3685 29.808 44.9805 29.64 45.7645 29.64C46.1725 29.64 46.5805 29.696 46.9885 29.808C47.3965 29.912 47.7325 30.052 47.9965 30.228L47.6245 30.912C47.1045 30.552 46.4845 30.372 45.7645 30.372C45.2205 30.372 44.8085 30.468 44.5285 30.66C44.2565 30.852 44.1205 31.104 44.1205 31.416C44.1205 31.656 44.1965 31.848 44.3485 31.992C44.5085 32.136 44.7045 32.244 44.9365 32.316C45.1685 32.38 45.4885 32.448 45.8965 32.52C46.4005 32.616 46.8045 32.712 47.1085 32.808C47.4125 32.904 47.6725 33.068 47.8885 33.3C48.1045 33.532 48.2125 33.852 48.2125 34.26C48.2125 34.812 47.9805 35.252 47.5165 35.58C47.0605 35.9 46.4245 36.06 45.6085 36.06Z" fill="#464646"/>
<path fill-rule="evenodd" clip-rule="evenodd" d="M13.4645 13.4645C14.4021 12.5268 15.6739 12 17 12H25C26.3261 12 27.5979 12.5268 28.5355 13.4645C29.4732 14.4021 30 15.6739 30 17V19C30 19.5523 29.5523 20 29 20C28.4477 20 28 19.5523 28 19V17C28 16.2043 27.6839 15.4413 27.1213 14.8787C26.5587 14.3161 25.7956 14 25 14H17C16.2044 14 15.4413 14.3161 14.8787 14.8787C14.3161 15.4413 14 16.2043 14 17V19C14 19.5523 13.5523 20 13 20C12.4477 20 12 19.5523 12 19V17C12 15.6739 12.5268 14.4021 13.4645 13.4645Z" fill="#464646"/>
<path fill-rule="evenodd" clip-rule="evenodd" d="M21 2C19.3431 2 18 3.34315 18 5C18 6.65685 19.3431 8 21 8C22.6569 8 24 6.65685 24 5C24 3.34315 22.6569 2 21 2ZM16 5C16 2.23858 18.2386 0 21 0C23.7614 0 26 2.23858 26 5C26 7.76142 23.7614 10 21 10C18.2386 10 16 7.76142 16 5Z" fill="#464646"/>
<path fill-rule="evenodd" clip-rule="evenodd" d="M31.0318 12.88C31.1698 12.3453 31.7153 12.0237 32.25 12.1618C33.3227 12.4387 34.273 13.0641 34.9517 13.9397C35.6304 14.8152 35.9992 15.8914 36 16.9993V19C36 19.5523 35.5523 20 35 20C34.4477 20 34 19.5523 34 19V17.0007C34 17.0006 34 17.0008 34 17.0007C33.9994 16.3361 33.7782 15.6902 33.371 15.165C32.9638 14.6396 32.3936 14.2644 31.75 14.0982C31.2153 13.9602 30.8937 13.4148 31.0318 12.88Z" fill="#464646"/>
<path fill-rule="evenodd" clip-rule="evenodd" d="M27.0312 0.881962C27.1682 0.346936 27.713 0.0242632 28.248 0.161251C29.3236 0.436628 30.2768 1.06213 30.9576 1.93914C31.6383 2.81615 32.0078 3.89479 32.0078 5.005C32.0078 6.11521 31.6383 7.19385 30.9576 8.07086C30.2768 8.94787 29.3236 9.57337 28.248 9.84875C27.713 9.98574 27.1682 9.66307 27.0312 9.12804C26.8943 8.59301 27.2169 8.04824 27.752 7.91125C28.3973 7.74603 28.9692 7.37073 29.3777 6.84452C29.7861 6.31831 30.0078 5.67113 30.0078 5.005C30.0078 4.33887 29.7861 3.69169 29.3777 3.16548C28.9692 2.63928 28.3973 2.26398 27.752 2.09875C27.2169 1.96176 26.8943 1.41699 27.0312 0.881962Z" fill="#464646"/>
</g>
</svg>
