<svg width="15" height="11" viewBox="0 0 15 11" fill="none" xmlns="http://www.w3.org/2000/svg">
<path d="M2.6875 5.6875C3.97917 4.41667 5.53125 3.78125 7.34375 3.78125C9.17708 3.78125 10.7292 4.41667 12 5.6875L10.6875 7.03125C9.77083 6.11458 8.65625 5.65625 7.34375 5.65625C6.03125 5.65625 4.91667 6.11458 4 7.03125L2.6875 5.6875ZM5.34375 8.375C5.88542 7.83333 6.55208 7.5625 7.34375 7.5625C8.13542 7.5625 8.80208 7.83333 9.34375 8.375L7.34375 10.375L5.34375 8.375ZM0 3.03125C2.04167 1.01042 4.48958 0 7.34375 0C10.2188 0 12.6667 1.01042 14.6875 3.03125L13.3438 4.375C11.6771 2.72917 9.67708 1.90625 7.34375 1.90625C5.01042 1.90625 3.01042 2.72917 1.34375 4.375L0 3.03125Z" fill="#333333"/>
</svg>
